 http://www.shotpix.com/images/60572400899983832664.jpg

[b]Screencaps[/b] 
http://www.shotpix.com/images/36536895018974422416.jpg

[color=Blue]General
Complete name                            : Proud - JLS (1080p) [Sbyky]JLS - Proud.MP4
Format                                   : MPEG-4
Format profile                           : Base Media / Version 2
Codec ID                                 : mp42
File size                                : 87.7 MiB
Duration                                 : 4mn 7s
Overall bit rate mode                    : Variable
Overall bit rate                         : 2 973 Kbps
Encoded date                             : UTC 2012-02-02 20:01:06
Tagged date                              : UTC 2012-02-02 20:01:06

Video
ID                                       : 1
Format                                   : AVC
Format/Info                              : Advanced Video Codec
Format profile                           : High@L4.0
Format settings, CABAC                   : Yes
Format settings, ReFrames                : 1 frame
Codec ID                                 : avc1
Codec ID/Info                            : Advanced Video Coding
Duration                                 : 4mn 7s
Bit rate                                 : 2 822 Kbps
Maximum bit rate                         : 5 213 Kbps
Width                                    : 1 920 pixels
Height                                   : 1 080 pixels
Display aspect ratio                     : 16:9
Frame rate mode                          : Constant
Frame rate                               : 25.000 fps
Color space                              : YUV
Chroma subsampling                       : 4:2:0
Bit depth                                : 8 bits
Scan type                                : Progressive
Bits/(Pixel*Frame)                       : 0.054
Stream size                              : 83.2 MiB (95%)
Tagged date                              : UTC 2012-02-02 20:01:06

Audio
ID                                       : 2
Format                                   : AAC
Format/Info                              : Advanced Audio Codec
Format profile                           : LC
Codec ID                                 : 40
Duration                                 : 4mn 7s
Bit rate mode                            : Variable
Bit rate                                 : 148 Kbps
Maximum bit rate                         : 205 Kbps
Channel(s)                               : 2 channels
Channel positions                        : Front: L R
Sampling rate                            : 44.1 KHz
Compression mode                         : Lossy
Stream size                              : 4.38 MiB (5%)
Title                                    : IsoMedia File Produced by Google, 5-11-2011
Encoded date                             : UTC 2012-02-02 20:01:06
Tagged date                              : UTC 2012-02-02 20:01:06

Shared By Sbyky[/color] 
http://www.shotpix.com/images/61691806869951075798.gif